<?xml version="1.0" standalone="no"?><!DOCTYPE svg PUBLIC "-//W3C//DTD SVG 1.1//EN" "http://www.w3.org/Graphics/SVG/1.1/DTD/svg11.dtd"><svg height="1024" node-id="1" sillyvg="true" template-height="1024" template-width="1024" version="1.1" viewBox="0 0 1024 1024" width="1024" xmlns="http://www.w3.org/2000/svg" xmlns:xlink="http://www.w3.org/1999/xlink"><defs node-id="101"></defs><path d="M 374.66 101.71 L 238.13 101.71 L 238.13 238.24 L 283.66 238.24 L 283.66 329.26 L 329.29 329.26 L 329.29 420.28 L 283.64 420.28 L 283.64 465.79 L 238.13 465.79 L 238.13 556.66 L 192.62 556.66 L 192.62 784.21 L 238.13 784.21 L 238.13 829.72 L 283.64 829.72 L 283.64 875.23 L 374.66 875.23 L 374.66 920.74 L 647.72 920.74 L 647.72 875.23 L 738.74 875.23 L 738.74 829.72 L 784.25 829.72 L 784.25 784.21 L 829.76 784.21 L 829.76 556.66 L 784.25 556.66 L 784.25 465.64 L 738.74 465.64 L 738.74 420.13 L 693.23 420.13 L 693.23 329.26 L 738.74 329.26 L 738.74 238.24 L 784.25 238.24 L 784.25 101.71 L 647.72 101.71 L 647.72 192.73 L 602.21 192.73 L 602.21 329.26 L 556.70 329.26 L 556.70 374.77 L 465.68 374.77 L 465.68 329.26 L 420.17 329.26 L 420.17 192.73 L 374.80 192.73 Z" fill="#fef3db" fill-rule="nonzero" node-id="103" stroke="none" target-height="819.02997" target-width="637.14" target-x="192.62" target-y="101.71"></path><path d="M 283.64 56.20 L 329.15 56.20 L 329.15 101.71 L 283.64 101.71 Z" fill="#472712" fill-rule="nonzero" node-id="105" stroke="none" target-height="45.51" target-width="45.50998" target-x="283.64" target-y="56.2"></path><path d="M 238.13 56.20 L 283.64 56.20 L 283.64 101.71 L 238.13 101.71 Z" fill="#472712" fill-rule="nonzero" node-id="107" stroke="none" target-height="45.51" target-width="45.51001" target-x="238.13" target-y="56.2"></path><path d="M 192.62 101.71 L 238.13 101.71 L 238.13 147.22 L 192.62 147.22 Z" fill="#472712" fill-rule="nonzero" node-id="109" stroke="none" target-height="45.510002" target-width="45.51001" target-x="192.62" target-y="101.71"></path><path d="M 192.62 147.22 L 238.13 147.22 L 238.13 192.73 L 192.62 192.73 Z" fill="#472712" fill-rule="nonzero" node-id="111" stroke="none" target-height="45.509995" target-width="45.51001" target-x="192.62" target-y="147.22"></path><path d="M 192.62 192.73 L 238.13 192.73 L 238.13 238.24 L 192.62 238.24 Z" fill="#472712" fill-rule="nonzero" node-id="113" stroke="none" target-height="45.51001" target-width="45.51001" target-x="192.62" target-y="192.73"></path><path d="M 192.62 238.24 L 238.13 238.24 L 238.13 283.75 L 192.62 283.75 Z" fill="#472712" fill-rule="nonzero" node-id="115" stroke="none" target-height="45.509995" target-width="45.51001" target-x="192.62" target-y="238.24"></path><path d="M 784.25 101.71 L 829.76 101.71 L 829.76 147.22 L 784.25 147.22 Z" fill="#472712" fill-rule="nonzero" node-id="117" stroke="none" target-height="45.510002" target-width="45.51001" target-x="784.25" target-y="101.71"></path><path d="M 784.25 147.22 L 829.76 147.22 L 829.76 192.73 L 784.25 192.73 Z" fill="#472712" fill-rule="nonzero" node-id="119" stroke="none" target-height="45.509995" target-width="45.51001" target-x="784.25" target-y="147.22"></path><path d="M 784.25 192.73 L 829.76 192.73 L 829.76 238.24 L 784.25 238.24 Z" fill="#472712" fill-rule="nonzero" node-id="121" stroke="none" target-height="45.51001" target-width="45.51001" target-x="784.25" target-y="192.73"></path><path d="M 784.25 238.24 L 829.76 238.24 L 829.76 283.75 L 784.25 283.75 Z" fill="#472712" fill-rule="nonzero" node-id="123" stroke="none" target-height="45.509995" target-width="45.51001" target-x="784.25" target-y="238.24"></path><path d="M 238.13 238.24 L 283.64 238.24 L 283.64 283.75 L 238.13 283.75 Z" fill="#472712" fill-rule="nonzero" node-id="125" stroke="none" target-height="45.509995" target-width="45.51001" target-x="238.13" target-y="238.24"></path><path d="M 238.13 283.75 L 283.64 283.75 L 283.64 329.26 L 238.13 329.26 Z" fill="#472712" fill-rule="nonzero" node-id="127" stroke="none" target-height="45.51001" target-width="45.51001" target-x="238.13" target-y="283.75"></path><path d="M 738.74 238.09 L 784.25 238.09 L 784.25 283.60 L 738.74 283.60 Z" fill="#472712" fill-rule="nonzero" node-id="129" stroke="none" target-height="45.51001" target-width="45.51001" target-x="738.74" target-y="238.09"></path><path d="M 738.74 283.60 L 784.25 283.60 L 784.25 329.11 L 738.74 329.11 Z" fill="#472712" fill-rule="nonzero" node-id="131" stroke="none" target-height="45.50998" target-width="45.51001" target-x="738.74" target-y="283.6"></path><path d="M 283.66 329.26 L 329.17 329.26 L 329.17 374.77 L 283.66 374.77 Z" fill="#472712" fill-rule="nonzero" node-id="133" stroke="none" target-height="45.50998" target-width="45.51001" target-x="283.66" target-y="329.26"></path><path d="M 283.66 374.77 L 329.17 374.77 L 329.17 420.28 L 283.66 420.28 Z" fill="#472712" fill-rule="nonzero" node-id="135" stroke="none" target-height="45.51001" target-width="45.51001" target-x="283.66" target-y="374.77"></path><path d="M 238.13 420.28 L 283.64 420.28 L 283.64 465.79 L 238.13 465.79 Z" fill="#472712" fill-rule="nonzero" node-id="137" stroke="none" target-height="45.51001" target-width="45.51001" target-x="238.13" target-y="420.28"></path><path d="M 192.62 465.79 L 238.13 465.79 L 238.13 511.30 L 192.62 511.30 Z" fill="#472712" fill-rule="nonzero" node-id="139" stroke="none" target-height="45.50998" target-width="45.51001" target-x="192.62" target-y="465.79"></path><path d="M 192.62 511.15 L 238.13 511.15 L 238.13 556.66 L 192.62 556.66 Z" fill="#472712" fill-rule="nonzero" node-id="141" stroke="none" target-height="45.50998" target-width="45.51001" target-x="192.62" target-y="511.15"></path><path d="M 329.73 569.61 L 375.24 569.61 L 375.24 615.12 L 329.73 615.12 Z" fill="#472712" fill-rule="nonzero" node-id="143" stroke="none" target-height="45.51001" target-width="45.50998" target-x="329.73" target-y="569.61"></path><path d="M 375.24 569.61 L 420.75 569.61 L 420.75 615.12 L 375.24 615.12 Z" fill="#ffffff" fill-rule="nonzero" node-id="145" stroke="none" target-height="45.51001" target-width="45.51001" target-x="375.24" target-y="569.61"></path><path d="M 329.73 615.12 L 375.24 615.12 L 375.24 660.63 L 329.73 660.63 Z" fill="#472712" fill-rule="nonzero" node-id="147" stroke="none" target-height="45.51001" target-width="45.50998" target-x="329.73" target-y="615.12"></path><path d="M 375.24 615.12 L 420.75 615.12 L 420.75 660.63 L 375.24 660.63 Z" fill="#472712" fill-rule="nonzero" node-id="149" stroke="none" target-height="45.51001" target-width="45.51001" target-x="375.24" target-y="615.12"></path><path d="M 612.65 569.61 L 658.16 569.61 L 658.16 615.12 L 612.65 615.12 Z" fill="#472712" fill-rule="nonzero" node-id="151" stroke="none" target-height="45.51001" target-width="45.50995" target-x="612.65" target-y="569.61"></path><path d="M 658.16 569.61 L 703.67 569.61 L 703.67 615.12 L 658.16 615.12 Z" fill="#ffffff" fill-rule="nonzero" node-id="153" stroke="none" target-height="45.51001" target-width="45.51001" target-x="658.16" target-y="569.61"></path><path d="M 612.65 615.12 L 658.16 615.12 L 658.16 660.63 L 612.65 660.63 Z" fill="#472712" fill-rule="nonzero" node-id="155" stroke="none" target-height="45.51001" target-width="45.50995" target-x="612.65" target-y="615.12"></path><path d="M 658.16 615.12 L 703.67 615.12 L 703.67 660.63 L 658.16 660.63 Z" fill="#472712" fill-rule="nonzero" node-id="157" stroke="none" target-height="45.51001" target-width="45.51001" target-x="658.16" target-y="615.12"></path><path d="M 147.11 556.66 L 192.62 556.66 L 192.62 602.17 L 147.11 602.17 Z" fill="#472712" fill-rule="nonzero" node-id="159" stroke="none" target-height="45.51001" target-width="45.509995" target-x="147.11" target-y="556.66"></path><path d="M 147.11 602.17 L 192.62 602.17 L 192.62 647.68 L 147.11 647.68 Z" fill="#472712" fill-rule="nonzero" node-id="161" stroke="none" target-height="45.51001" target-width="45.509995" target-x="147.11" target-y="602.17"></path><path d="M 147.11 647.68 L 192.62 647.68 L 192.62 693.19 L 147.11 693.19 Z" fill="#472712" fill-rule="nonzero" node-id="163" stroke="none" target-height="45.51001" target-width="45.509995" target-x="147.11" target-y="647.68"></path><path d="M 147.11 693.19 L 192.62 693.19 L 192.62 738.70 L 147.11 738.70 Z" fill="#472712" fill-rule="nonzero" node-id="165" stroke="none" target-height="45.51001" target-width="45.509995" target-x="147.11" target-y="693.19"></path><path d="M 147.11 738.70 L 192.62 738.70 L 192.62 784.21 L 147.11 784.21 Z" fill="#472712" fill-rule="nonzero" node-id="167" stroke="none" target-height="45.51001" target-width="45.509995" target-x="147.11" target-y="738.7"></path><path d="M 192.62 784.21 L 238.13 784.21 L 238.13 829.72 L 192.62 829.72 Z" fill="#472712" fill-rule="nonzero" node-id="169" stroke="none" target-height="45.50995" target-width="45.51001" target-x="192.62" target-y="784.21"></path><path d="M 238.13 829.72 L 283.64 829.72 L 283.64 875.23 L 238.13 875.23 Z" fill="#472712" fill-rule="nonzero" node-id="171" stroke="none" target-height="45.51001" target-width="45.51001" target-x="238.13" target-y="829.72"></path><path d="M 283.64 875.23 L 329.15 875.23 L 329.15 920.74 L 283.64 920.74 Z" fill="#472712" fill-rule="nonzero" node-id="173" stroke="none" target-height="45.51001" target-width="45.50998" target-x="283.64" target-y="875.23"></path><path d="M 329.15 875.23 L 374.66 875.23 L 374.66 920.74 L 329.15 920.74 Z" fill="#472712" fill-rule="nonzero" node-id="175" stroke="none" target-height="45.51001" target-width="45.51001" target-x="329.15" target-y="875.23"></path><path d="M 374.66 920.74 L 420.17 920.74 L 420.17 966.25 L 374.66 966.25 Z" fill="#472712" fill-rule="nonzero" node-id="177" stroke="none" target-height="45.51001" target-width="45.51001" target-x="374.66" target-y="920.74"></path><path d="M 420.17 920.74 L 465.68 920.74 L 465.68 966.25 L 420.17 966.25 Z" fill="#472712" fill-rule="nonzero" node-id="179" stroke="none" target-height="45.51001" target-width="45.50998" target-x="420.17" target-y="920.74"></path><path d="M 465.68 920.74 L 511.19 920.74 L 511.19 966.25 L 465.68 966.25 Z" fill="#472712" fill-rule="nonzero" node-id="181" stroke="none" target-height="45.51001" target-width="45.51001" target-x="465.68" target-y="920.74"></path><path d="M 511.19 920.74 L 556.70 920.74 L 556.70 966.25 L 511.19 966.25 Z" fill="#472712" fill-rule="nonzero" node-id="183" stroke="none" target-height="45.51001" target-width="45.51001" target-x="511.19" target-y="920.74"></path><path d="M 556.70 920.74 L 602.21 920.74 L 602.21 966.25 L 556.70 966.25 Z" fill="#472712" fill-rule="nonzero" node-id="185" stroke="none" target-height="45.51001" target-width="45.51001" target-x="556.7" target-y="920.74"></path><path d="M 602.21 920.74 L 647.72 920.74 L 647.72 966.25 L 602.21 966.25 Z" fill="#472712" fill-rule="nonzero" node-id="187" stroke="none" target-height="45.51001" target-width="45.50995" target-x="602.21" target-y="920.74"></path><path d="M 647.72 875.23 L 693.23 875.23 L 693.23 920.74 L 647.72 920.74 Z" fill="#472712" fill-rule="nonzero" node-id="189" stroke="none" target-height="45.51001" target-width="45.51001" target-x="647.72" target-y="875.23"></path><path d="M 693.23 875.23 L 738.74 875.23 L 738.74 920.74 L 693.23 920.74 Z" fill="#472712" fill-rule="nonzero" node-id="191" stroke="none" target-height="45.51001" target-width="45.51001" target-x="693.23" target-y="875.23"></path><path d="M 738.74 829.72 L 784.25 829.72 L 784.25 875.23 L 738.74 875.23 Z" fill="#472712" fill-rule="nonzero" node-id="193" stroke="none" target-height="45.51001" target-width="45.51001" target-x="738.74" target-y="829.72"></path><path d="M 784.25 784.21 L 829.76 784.21 L 829.76 829.72 L 784.25 829.72 Z" fill="#472712" fill-rule="nonzero" node-id="195" stroke="none" target-height="45.50995" target-width="45.51001" target-x="784.25" target-y="784.21"></path><path d="M 829.76 738.70 L 875.27 738.70 L 875.27 784.21 L 829.76 784.21 Z" fill="#472712" fill-rule="nonzero" node-id="197" stroke="none" target-height="45.51001" target-width="45.51001" target-x="829.76" target-y="738.7"></path><path d="M 829.76 693.19 L 875.27 693.19 L 875.27 738.70 L 829.76 738.70 Z" fill="#472712" fill-rule="nonzero" node-id="199" stroke="none" target-height="45.51001" target-width="45.51001" target-x="829.76" target-y="693.19"></path><path d="M 829.76 647.68 L 875.27 647.68 L 875.27 693.19 L 829.76 693.19 Z" fill="#472712" fill-rule="nonzero" node-id="201" stroke="none" target-height="45.51001" target-width="45.51001" target-x="829.76" target-y="647.68"></path><path d="M 829.76 602.17 L 875.27 602.17 L 875.27 647.68 L 829.76 647.68 Z" fill="#472712" fill-rule="nonzero" node-id="203" stroke="none" target-height="45.51001" target-width="45.51001" target-x="829.76" target-y="602.17"></path><path d="M 829.76 556.66 L 875.27 556.66 L 875.27 602.17 L 829.76 602.17 Z" fill="#472712" fill-rule="nonzero" node-id="205" stroke="none" target-height="45.51001" target-width="45.51001" target-x="829.76" target-y="556.66"></path><path d="M 784.25 511.15 L 829.76 511.15 L 829.76 556.66 L 784.25 556.66 Z" fill="#472712" fill-rule="nonzero" node-id="207" stroke="none" target-height="45.50998" target-width="45.51001" target-x="784.25" target-y="511.15"></path><path d="M 784.25 465.64 L 829.76 465.64 L 829.76 511.15 L 784.25 511.15 Z" fill="#472712" fill-rule="nonzero" node-id="209" stroke="none" target-height="45.50998" target-width="45.51001" target-x="784.25" target-y="465.64"></path><path d="M 738.74 420.13 L 784.25 420.13 L 784.25 465.64 L 738.74 465.64 Z" fill="#472712" fill-rule="nonzero" node-id="211" stroke="none" target-height="45.51001" target-width="45.51001" target-x="738.74" target-y="420.13"></path><path d="M 693.23 329.11 L 738.74 329.11 L 738.74 374.62 L 693.23 374.62 Z" fill="#472712" fill-rule="nonzero" node-id="213" stroke="none" target-height="45.51001" target-width="45.51001" target-x="693.23" target-y="329.11"></path><path d="M 693.23 374.62 L 738.74 374.62 L 738.74 420.13 L 693.23 420.13 Z" fill="#472712" fill-rule="nonzero" node-id="215" stroke="none" target-height="45.51001" target-width="45.51001" target-x="693.23" target-y="374.62"></path><path d="M 329.15 56.20 L 374.66 56.20 L 374.66 101.71 L 329.15 101.71 Z" fill="#472712" fill-rule="nonzero" node-id="217" stroke="none" target-height="45.51" target-width="45.51001" target-x="329.15" target-y="56.2"></path><path d="M 693.23 56.20 L 738.74 56.20 L 738.74 101.71 L 693.23 101.71 Z" fill="#472712" fill-rule="nonzero" node-id="219" stroke="none" target-height="45.51" target-width="45.51001" target-x="693.23" target-y="56.2"></path><path d="M 647.72 56.20 L 693.23 56.20 L 693.23 101.71 L 647.72 101.71 Z" fill="#472712" fill-rule="nonzero" node-id="221" stroke="none" target-height="45.51" target-width="45.51001" target-x="647.72" target-y="56.2"></path><path d="M 738.74 56.20 L 784.25 56.20 L 784.25 101.71 L 738.74 101.71 Z" fill="#472712" fill-rule="nonzero" node-id="223" stroke="none" target-height="45.51" target-width="45.51001" target-x="738.74" target-y="56.2"></path><path d="M 374.66 101.71 L 420.17 101.71 L 420.17 147.22 L 374.66 147.22 Z" fill="#472712" fill-rule="nonzero" node-id="225" stroke="none" target-height="45.510002" target-width="45.51001" target-x="374.66" target-y="101.71"></path><path d="M 374.66 147.22 L 420.17 147.22 L 420.17 192.73 L 374.66 192.73 Z" fill="#472712" fill-rule="nonzero" node-id="227" stroke="none" target-height="45.509995" target-width="45.51001" target-x="374.66" target-y="147.22"></path><path d="M 283.66 192.73 L 329.17 192.73 L 329.17 238.24 L 283.66 238.24 Z" fill="#fcae9f" fill-rule="nonzero" node-id="229" stroke="none" target-height="45.51001" target-width="45.51001" target-x="283.66" target-y="192.73"></path><path d="M 329.29 192.73 L 374.80 192.73 L 374.80 238.24 L 329.29 238.24 Z" fill="#fcae9f" fill-rule="nonzero" node-id="231" stroke="none" target-height="45.51001" target-width="45.50998" target-x="329.29" target-y="192.73"></path><path d="M 329.29 238.24 L 374.80 238.24 L 374.80 283.75 L 329.29 283.75 Z" fill="#fcae9f" fill-rule="nonzero" node-id="233" stroke="none" target-height="45.509995" target-width="45.50998" target-x="329.29" target-y="238.24"></path><path d="M 329.29 283.75 L 374.80 283.75 L 374.80 329.26 L 329.29 329.26 Z" fill="#fcae9f" fill-rule="nonzero" node-id="235" stroke="none" target-height="45.51001" target-width="45.50998" target-x="329.29" target-y="283.75"></path><path d="M 329.29 329.26 L 374.80 329.26 L 374.80 374.77 L 329.29 374.77 Z" fill="#f2ccbc" fill-rule="nonzero" node-id="237" stroke="none" target-height="45.50998" target-width="45.50998" target-x="329.29" target-y="329.26"></path><path d="M 374.66 283.75 L 420.17 283.75 L 420.17 329.26 L 374.66 329.26 Z" fill="#fcae9f" fill-rule="nonzero" node-id="239" stroke="none" target-height="45.51001" target-width="45.51001" target-x="374.66" target-y="283.75"></path><path d="M 374.66 329.26 L 420.17 329.26 L 420.17 374.77 L 374.66 374.77 Z" fill="#fcae9f" fill-rule="nonzero" node-id="241" stroke="none" target-height="45.50998" target-width="45.51001" target-x="374.66" target-y="329.26"></path><path d="M 283.66 238.24 L 329.17 238.24 L 329.17 283.75 L 283.66 283.75 Z" fill="#f2ccbc" fill-rule="nonzero" node-id="243" stroke="none" target-height="45.509995" target-width="45.51001" target-x="283.66" target-y="238.24"></path><g node-id="319"><path d="M 738.75 238.23 L 693.24 238.23 L 693.24 192.72 L 738.75 192.72 Z" fill="#fcae9f" fill-rule="nonzero" group-id="1" node-id="247" stroke="none" target-height="45.509995" target-width="45.51001" target-x="693.24" target-y="192.72"></path></g><g node-id="320"><path d="M 693.11 238.23 L 647.60 238.23 L 647.60 192.72 L 693.11 192.72 Z" fill="#fcae9f" fill-rule="nonzero" group-id="2" node-id="252" stroke="none" target-height="45.509995" target-width="45.51001" target-x="647.6" target-y="192.72"></path></g><g node-id="321"><path d="M 693.11 283.74 L 647.60 283.74 L 647.60 238.23 L 693.11 238.23 Z" fill="#fcae9f" fill-rule="nonzero" group-id="3" node-id="257" stroke="none" target-height="45.509995" target-width="45.51001" target-x="647.6" target-y="238.23"></path></g><g node-id="322"><path d="M 693.11 329.25 L 647.60 329.25 L 647.60 283.74 L 693.11 283.74 Z" fill="#fcae9f" fill-rule="nonzero" group-id="4" node-id="262" stroke="none" target-height="45.51001" target-width="45.51001" target-x="647.6" target-y="283.74"></path></g><g node-id="323"><path d="M 693.11 374.77 L 647.60 374.77 L 647.60 329.26 L 693.11 329.26 Z" fill="#f2ccbc" fill-rule="nonzero" group-id="5" node-id="267" stroke="none" target-height="45.50998" target-width="45.51001" target-x="647.6" target-y="329.26"></path></g><g node-id="324"><path d="M 647.75 329.25 L 602.24 329.25 L 602.24 283.74 L 647.75 283.74 Z" fill="#fcae9f" fill-rule="nonzero" group-id="6" node-id="272" stroke="none" target-height="45.51001" target-width="45.51001" target-x="602.24" target-y="283.74"></path></g><g node-id="325"><path d="M 647.75 374.77 L 602.24 374.77 L 602.24 329.26 L 647.75 329.26 Z" fill="#fcae9f" fill-rule="nonzero" group-id="7" node-id="277" stroke="none" target-height="45.50998" target-width="45.51001" target-x="602.24" target-y="329.26"></path></g><g node-id="326"><path d="M 738.75 283.74 L 693.24 283.74 L 693.24 238.23 L 738.75 238.23 Z" fill="#f2ccbc" fill-rule="nonzero" group-id="8" node-id="282" stroke="none" target-height="45.509995" target-width="45.51001" target-x="693.24" target-y="238.23"></path></g><path d="M 602.21 101.71 L 647.72 101.71 L 647.72 147.22 L 602.21 147.22 Z" fill="#472712" fill-rule="nonzero" node-id="285" stroke="none" target-height="45.510002" target-width="45.50995" target-x="602.21" target-y="101.71"></path><path d="M 602.21 147.22 L 647.72 147.22 L 647.72 192.73 L 602.21 192.73 Z" fill="#472712" fill-rule="nonzero" node-id="287" stroke="none" target-height="45.509995" target-width="45.50995" target-x="602.21" target-y="147.22"></path><path d="M 420.17 192.73 L 465.68 192.73 L 465.68 238.24 L 420.17 238.24 Z" fill="#472712" fill-rule="nonzero" node-id="289" stroke="none" target-height="45.51001" target-width="45.50998" target-x="420.17" target-y="192.73"></path><path d="M 420.17 238.24 L 465.68 238.24 L 465.68 283.75 L 420.17 283.75 Z" fill="#472712" fill-rule="nonzero" node-id="291" stroke="none" target-height="45.509995" target-width="45.50998" target-x="420.17" target-y="238.24"></path><path d="M 420.17 283.75 L 465.68 283.75 L 465.68 329.26 L 420.17 329.26 Z" fill="#472712" fill-rule="nonzero" node-id="293" stroke="none" target-height="45.51001" target-width="45.50998" target-x="420.17" target-y="283.75"></path><path d="M 556.70 192.73 L 602.21 192.73 L 602.21 238.24 L 556.70 238.24 Z" fill="#472712" fill-rule="nonzero" node-id="295" stroke="none" target-height="45.51001" target-width="45.51001" target-x="556.7" target-y="192.73"></path><path d="M 556.70 238.24 L 602.21 238.24 L 602.21 283.75 L 556.70 283.75 Z" fill="#472712" fill-rule="nonzero" node-id="297" stroke="none" target-height="45.509995" target-width="45.51001" target-x="556.7" target-y="238.24"></path><path d="M 556.70 283.75 L 602.21 283.75 L 602.21 329.26 L 556.70 329.26 Z" fill="#472712" fill-rule="nonzero" node-id="299" stroke="none" target-height="45.51001" target-width="45.51001" target-x="556.7" target-y="283.75"></path><path d="M 465.68 329.26 L 511.19 329.26 L 511.19 374.77 L 465.68 374.77 Z" fill="#472712" fill-rule="nonzero" node-id="301" stroke="none" target-height="45.50998" target-width="45.51001" target-x="465.68" target-y="329.26"></path><path d="M 511.19 329.26 L 556.70 329.26 L 556.70 374.77 L 511.19 374.77 Z" fill="#472712" fill-rule="nonzero" node-id="303" stroke="none" target-height="45.50998" target-width="45.51001" target-x="511.19" target-y="329.26"></path><path d="M 465.68 659.95 L 511.19 659.95 L 511.19 705.46 L 465.68 705.46 Z" fill="#472712" fill-rule="nonzero" node-id="305" stroke="none" target-height="45.51001" target-width="45.51001" target-x="465.68" target-y="659.95"></path><path d="M 511.19 659.95 L 556.70 659.95 L 556.70 705.46 L 511.19 705.46 Z" fill="#472712" fill-rule="nonzero" node-id="307" stroke="none" target-height="45.51001" target-width="45.51001" target-x="511.19" target-y="659.95"></path><path d="M 489.38 704.98 L 534.89 704.98 L 534.89 750.49 L 489.38 750.49 Z" fill="#472712" fill-rule="nonzero" node-id="309" stroke="none" target-height="45.51001" target-width="45.51001" target-x="489.38" target-y="704.98"></path><path d="M 443.87 750.49 L 489.38 750.49 L 489.38 796.00 L 443.87 796.00 Z" fill="#472712" fill-rule="nonzero" node-id="311" stroke="none" target-height="45.51001" target-width="45.51001" target-x="443.87" target-y="750.49"></path><path d="M 534.89 750.49 L 580.40 750.49 L 580.40 796.00 L 534.89 796.00 Z" fill="#472712" fill-rule="nonzero" node-id="313" stroke="none" target-height="45.51001" target-width="45.51001" target-x="534.89" target-y="750.49"></path><path d="M 580.40 704.98 L 625.91 704.98 L 625.91 750.49 L 580.40 750.49 Z" fill="#472712" fill-rule="nonzero" node-id="315" stroke="none" target-height="45.51001" target-width="45.50995" target-x="580.4" target-y="704.98"></path><path d="M 397.99 704.98 L 443.50 704.98 L 443.50 750.49 L 397.99 750.49 Z" fill="#472712" fill-rule="nonzero" node-id="317" stroke="none" target-height="45.51001" target-width="45.51001" target-x="397.99" target-y="704.98"></path></svg>